Coordinates
version=1
nRows=8
nColumns=40
inDegrees=yes

Units are S.I. units (second, meters, Newtons, ...)
If the header above contains a line with 'inDegrees', this indicates whether rotational values are in degrees (yes) or radians (no).

endheader
time	pelvis_tilt	pelvis_list	pelvis_rotation	pelvis_tx	pelvis_ty	pelvis_tz	hip_flexion_r	hip_adduction_r	hip_rotation_r	knee_angle_r	knee_angle_r_beta	ankle_angle_r	subtalar_angle_r	mtp_angle_r	hip_flexion_l	hip_adduction_l	hip_rotation_l	knee_angle_l	knee_angle_l_beta	ankle_angle_l	subtalar_angle_l	mtp_angle_l	lumbar_extension	lumbar_bending	lumbar_rotation	arm_flex_r	arm_add_r	arm_rot_r	elbow_flex_r	pro_sup_r	wrist_flex_r	wrist_dev_r	arm_flex_l	arm_add_l	arm_rot_l	elbow_flex_l	pro_sup_l	wrist_flex_l	wrist_dev_l
      7.91000000	     89.45146915	     87.05695173	     89.47848898	      0.30918380	      0.94480142	      0.79086976	     21.13789673	    -34.42143968	    -27.92063209	     14.57712000	      0.25441874	    -11.31308955	      0.00000000	      0.00000000	     17.52518326	    -37.30531003	    -32.10110339	     17.13834128	      0.29912048	     -9.66230766	      0.00000000	      0.00000000	    -33.33847700	     -6.06358456	      9.07354168	     32.60522720	    -25.05963706	     84.28918439	     27.63550818	     79.68901808	      0.00000000	      0.00000000	     37.40293597	    -15.13850278	     76.81530349	     17.91143627	     84.18095595	      0.00000000	      0.00000000
      7.91500000	     89.46421899	     84.70677743	     89.50874953	      0.31145374	      0.94453740	      0.78638114	     24.25113117	    -34.61221276	    -27.28904358	     15.37590929	      0.26836024	    -11.07636458	      0.00000000	      0.00000000	     20.98038691	    -37.69563834	    -31.63386370	     18.52654537	      0.32334922	     -9.04187064	      0.00000000	      0.00000000	    -31.23020092	     -6.05349004	      9.12485253	     32.70211839	    -25.15689504	     84.86156233	     27.71974818	     78.72985314	      0.00000000	      0.00000000	     37.54104495	    -15.10698433	     77.16917427	     17.98828304	     84.23239989	      0.00000000	      0.00000000
      7.92000000	     89.41395377	     84.62518156	     89.46572959	      0.31245085	      0.94462027	      0.78614609	     24.47473518	    -34.58189045	    -27.24943892	     15.35667662	      0.26802457	    -11.08619133	      0.00000000	      0.00000000	     21.06928830	    -37.72939336	    -31.75086962	     18.50064038	      0.32289709	     -9.02645957	      0.00000000	      0.00000000	    -31.55460323	     -6.14409649	      9.17338191	     32.94960323	    -25.17362014	     84.80013762	     27.68703182	     78.71223416	      0.00000000	      0.00000000	     37.81696717	    -15.07706222	     77.11788725	     17.99115276	     84.21710944	      0.00000000	      0.00000000
      7.92500000	     89.38491881	     84.53400418	     89.44432130	      0.31350166	      0.94458930	      0.78592050	     24.67693544	    -34.56196732	    -27.20500962	     15.33740237	      0.26768817	    -11.12100530	      0.00000000	      0.00000000	     21.21577768	    -37.75030685	    -31.82909233	     18.50054455	      0.32289542	     -9.04386087	      0.00000000	      0.00000000	    -31.89094565	     -6.20190670	      9.19537709	     33.21665487	    -25.21262564	     84.73639395	     27.65576510	     78.69184308	      0.00000000	      0.00000000	     38.09846289	    -15.02208256	     77.06992780	     17.99657252	     84.20149119	      0.00000000	      0.00000000
      7.93000000	     89.41596482	     84.37016168	     89.47803900	      0.31479135	      0.94436553	      0.78553488	     24.91534486	    -34.58492040	    -27.07750376	     15.31689096	      0.26733018	    -11.41195047	      0.00000000	      0.00000000	     21.69033543	    -37.78147707	    -31.55376246	     18.74931252	      0.32723724	     -9.30244427	      0.00000000	      0.00000000	    -32.17671941	     -6.19796445	      9.10478787	     33.50984056	    -25.30205747	     84.70035407	     27.74807084	     78.62591714	      0.00000000	      0.00000000	     38.40355762	    -14.93040229	     77.04792909	     17.90367924	     84.17138487	      0.00000000	      0.00000000
      7.93500000	     89.39516533	     84.25330325	     89.45013068	      0.31567542	      0.94434349	      0.78523288	     25.12798091	    -34.56761593	    -27.06011401	     15.28890461	      0.26684172	    -11.41832412	      0.00000000	      0.00000000	     21.83991973	    -37.80592415	    -31.69763618	     18.71999888	      0.32672562	     -9.26620362	      0.00000000	      0.00000000	    -32.46043165	     -6.26223368	      9.14362248	     33.72909654	    -25.33361698	     84.65389811	     27.70729337	     78.60823432	      0.00000000	      0.00000000	     38.66724234	    -14.86883024	     77.00189970	     17.93053653	     84.15753492	      0.00000000	      0.00000000
      7.94000000	     89.38913746	     80.83770933	     89.48435226	      0.31879704	      0.94409034	      0.77869438	     29.65216656	    -34.78091920	    -25.99691476	     16.40714627	      0.28635872	    -11.09350771	      0.00000000	      0.00000000	     26.68069137	    -38.23150723	    -30.68082525	     20.36536561	      0.35544268	     -8.60897142	      0.00000000	      0.00000000	    -29.15359157	     -6.24887785	      9.22900413	     33.69118431	    -25.38935377	     85.25152066	     27.73024692	     77.56037791	      0.00000000	      0.00000000	     38.59900129	    -14.79542696	     77.05298734	     17.89479907	     83.99342097	      0.00000000	      0.00000000
      7.94500000	     89.35573641	     80.74983841	     89.44239755	      0.31976442	      0.94411259	      0.77844438	     29.86529228	    -34.75191232	    -25.96837277	     16.38990195	      0.28605775	    -11.10141291	      0.00000000	      0.00000000	     26.78109013	    -38.27375305	    -30.80858029	     20.34400510	      0.35506987	     -8.59625902	      0.00000000	      0.00000000	    -29.47559494	     -6.32479500	      9.26035945	     33.94570945	    -25.40441115	     85.18660734	     27.69285341	     77.54396265	      0.00000000	      0.00000000	     38.85347229	    -14.76478261	     77.01232378	     17.89884396	     83.98581926	      0.00000000	      0.00000000
